{
  "accessors": [
    {
      "bufferView": 2,
      "componentType": 5126,
      "count": 1586,
      "max": [
        2.574251651763916,
        5.106278419494629,
        3.476959228515625
      ],
      "min": [
        -2.574251651763916,
        -7.15126895904541,
        0.44521668553352356
      ],
      "type": "VEC3"
    },
    {
      "bufferView": 2,
      "byteOffset": 19032,
      "componentType": 5126,
      "count": 1586,
      "max": [
        1.0,
        1.0,
        1.0
      ],
      "min": [
        -1.0,
        -0.9614456295967102,
        -1.0
      ],
      "type": "VEC3"
    },
    {
      "bufferView": 1,
      "componentType": 5126,
      "count": 1586,
      "max": [
        0.9974265694618225,
        0.9914388060569763
      ],
      "min": [
        0.0,
        0.0
      ],
      "type": "VEC2"
    },
    {
      "bufferView": 0,
      "componentType": 5125,
      "count": 4338,
      "type": "SCALAR"
    },
    {
      "bufferView": 2,
      "byteOffset": 38064,
      "componentType": 5126,
      "count": 5210,
      "max": [
        2.57204008102417,
        5.025075435638428,
        3.3418591022491455
      ],
      "min": [
        -2.5742416381835938,
        -7.330955982208252,
        0.3004252314567566
      ],
      "type": "VEC3"
    },
    {
      "bufferView": 2,
      "byteOffset": 100584,
      "componentType": 5126,
      "count": 5210,
      "max": [
        1.0,
        1.0,
        1.0
      ],
      "min": [
        -1.0,
        -1.0,
        -1.0
      ],
      "type": "VEC3"
    },
    {
      "bufferView": 1,
      "byteOffset": 12688,
      "componentType": 5126,
      "count": 5210,
      "max": [
        0.9999999403953552,
        1.0
      ],
      "min": [
        0.0,
        0.0
      ],
      "type": "VEC2"
    },
    {
      "bufferView": 0,
      "byteOffset": 17352,
      "componentType": 5125,
      "count": 17010,
      "type": "SCALAR"
    },
    {
      "bufferView": 2,
      "byteOffset": 163104,
      "componentType": 5126,
      "count": 87,
      "max": [
        2.4586007595062256,
        3.3124287128448486,
        3.3276381492614746
      ],
      "min": [
        -2.4586007595062256,
        -3.230670690536499,
        2.3596842288970947
      ],
      "type": "VEC3"
    },
    {
      "bufferView": 2,
      "byteOffset": 164148,
      "componentType": 5126,
      "count": 87,
      "max": [
        0.9283944964408875,
        0.9626141786575317,
        0.963959813117981
      ],
      "min": [
        -0.9283944964408875,
        -0.4820292294025421,
        -0.4105631113052368
      ],
      "type": "VEC3"
    },
    {
      "bufferView": 1,
      "byteOffset": 54368,
      "componentType": 5126,
      "count": 87,
      "max": [
        0.8806180357933044,
        0.8571786880493164
      ],
      "min": [
        0.02298804745078087,
        0.09332554787397385
      ],
      "type": "VEC2"
    },
    {
      "bufferView": 0,
      "byteOffset": 85392,
      "componentType": 5125,
      "count": 228,
      "type": "SCALAR"
    },
    {
      "bufferView": 2,
      "byteOffset": 165192,
      "componentType": 5126,
      "count": 40,
      "max": [
        1.6703466176986694,
        4.8532586097717285,
        2.52458119392395
      ],
      "min": [
        -1.6703466176986694,
        4.721789360046387,
        2.0596773624420166
      ],
      "type": "VEC3"
    },
    {
      "bufferView": 2,
      "byteOffset": 165672,
      "componentType": 5126,
      "count": 40,
      "max": [
        0.39135095477104187,
        0.9948785305023193,
        0.7336485981941223
      ],
      "min": [
        -0.391350656747818,
        0.6795291304588318,
        -0.41449305415153503
      ],
      "type": "VEC3"
    },
    {
      "bufferView": 1,
      "byteOffset": 55064,
      "componentType": 5126,
      "count": 40,
      "max": [
        0.9195449948310852,
        0.9507028460502625
      ],
      "min": [
        0.1837495118379593,
        9.70236724242568e-05
      ],
      "type": "VEC2"
    },
    {
      "bufferView": 0,
      "byteOffset": 86304,
      "componentType": 5125,
      "count": 78,
      "type": "SCALAR"
    },
    {
      "bufferView": 2,
      "byteOffset": 166152,
      "componentType": 5126,
      "count": 36,
      "max": [
        2.1434683799743652,
        4.726753234863281,
        2.2511544227600098
      ],
      "min": [
        -2.1434683799743652,
        -6.396798133850098,
        0.9126214981079102
      ],
      "type": "VEC3"
    },
    {
      "bufferView": 2,
      "byteOffset": 166584,
      "componentType": 5126,
      "count": 36,
      "max": [
        0.9882460236549377,
        0.9505703449249268,
        0.617777407169342
      ],
      "min": [
        -0.9882462024688721,
        -0.8397889733314514,
        -0.5961535573005676
      ],
      "type": "VEC3"
    },
    {
      "bufferView": 1,
      "byteOffset": 55384,
      "componentType": 5126,
      "count": 36,
      "max": [
        0.813246488571167,
        0.9501383900642395
      ],
      "min": [
        0.11230884492397308,
        0.06008888781070709
      ],
      "type": "VEC2"
    },
    {
      "bufferView": 0,
      "byteOffset": 86616,
      "componentType": 5125,
      "count": 60,
      "type": "SCALAR"
    },
    {
      "bufferView": 2,
      "byteOffset": 167016,
      "componentType": 5126,
      "count": 32,
      "max": [
        0.7578644156455994,
        4.855749130249023,
        2.260209798812866
      ],
      "min": [
        -1.3023122549057007,
        -6.936613082885742,
        0.762467622756958
      ],
      "type": "VEC3"
    },
    {
      "bufferView": 2,
      "byteOffset": 167400,
      "componentType": 5126,
      "count": 32,
      "max": [
        0.3480508327484131,
        0.8917636871337891,
        0.46885791420936584
      ],
      "min": [
        -0.36585861444473267,
        -0.9370712041854858,
        -0.30190393328666687
      ],
      "type": "VEC3"
    },
    {
      "bufferView": 1,
      "byteOffset": 55672,
      "componentType": 5126,
      "count": 32,
      "max": [
        0.885901689529419,
        0.8949424624443054
      ],
      "min": [
        0.11144313961267471,
        0.06656429171562195
      ],
      "type": "VEC2"
    },
    {
      "bufferView": 0,
      "byteOffset": 86856,
      "componentType": 5125,
      "count": 48,
      "type": "SCALAR"
    },
    {
      "bufferView": 2,
      "byteOffset": 167784,
      "componentType": 5126,
      "count": 26,
      "max": [
        1.981527328491211,
        -6.137707233428955,
        1.6748687028884888
      ],
      "min": [
        -1.981527328491211,
        -6.598499298095703,
        1.4635151624679565
      ],
      "type": "VEC3"
    },
    {
      "bufferView": 2,
      "byteOffset": 168096,
      "componentType": 5126,
      "count": 26,
      "max": [
        0.8633759617805481,
        -0.38477468490600586,
        0.7289547920227051
      ],
      "min": [
        -0.8633759617805481,
        -0.9645206332206726,
        -0.45610103011131287
      ],
      "type": "VEC3"
    },
    {
      "bufferView": 1,
      "byteOffset": 55928,
      "componentType": 5126,
      "count": 26,
      "max": [
        0.8881925344467163,
        0.9823874235153198
      ],
      "min": [
        0.48165249824523926,
        0.2704974114894867
      ],
      "type": "VEC2"
    },
    {
      "bufferView": 0,
      "byteOffset": 87048,
      "componentType": 5125,
      "count": 54,
      "type": "SCALAR"
    },
    {
      "bufferView": 2,
      "byteOffset": 168408,
      "componentType": 5126,
      "count": 3648,
      "max": [
        2.57204008102417,
        5.131486892700195,
        2.265255928039551
      ],
      "min": [
        -2.5742416381835938,
        -5.14033317565918,
        0.3957209587097168
      ],
      "type": "VEC3"
    },
    {
      "bufferView": 2,
      "byteOffset": 212184,
      "componentType": 5126,
      "count": 3648,
      "max": [
        0.9996495246887207,
        0.9994000792503357,
        0.9991123080253601
      ],
      "min": [
        -0.9996495246887207,
        -0.9993987679481506,
        -0.9991123080253601
      ],
      "type": "VEC3"
    },
    {
      "bufferView": 1,
      "byteOffset": 56136,
      "componentType": 5126,
      "count": 3648,
      "max": [
        0.14550258219242096,
        0.1455805003643036
      ],
      "min": [
        0.10330244898796082,
        0.018640674650669098
      ],
      "type": "VEC2"
    },
    {
      "bufferView": 0,
      "byteOffset": 87264,
      "componentType": 5125,
      "count": 9708,
      "type": "SCALAR"
    },
    {
      "bufferView": 2,
      "byteOffset": 255960,
      "componentType": 5126,
      "count": 1099,
      "max": [
        2.0470104217529297,
        2.857344150543213,
        1.5316154956817627
      ],
      "min": [
        -2.0493171215057373,
        -6.248907089233398,
        0.6334140300750732
      ],
      "type": "VEC3"
    },
    {
      "bufferView": 2,
      "byteOffset": 269148,
      "componentType": 5126,
      "count": 1099,
      "max": [
        1.0,
        1.0,
        1.0
      ],
      "min": [
        -1.0,
        -1.0,
        -1.0
      ],
      "type": "VEC3"
    },
    {
      "bufferView": 1,
      "byteOffset": 85320,
      "componentType": 5126,
      "count": 1099,
      "max": [
        0.75,
        0.875
      ],
      "min": [
        0.0,
        0.0
      ],
      "type": "VEC2"
    },
    {
      "bufferView": 0,
      "byteOffset": 126096,
      "componentType": 5125,
      "count": 3174,
      "type": "SCALAR"
    },
    {
      "bufferView": 2,
      "byteOffset": 282336,
      "componentType": 5126,
      "count": 232,
      "max": [
        2.0222537517547607,
        2.896944284439087,
        1.5368609428405762
      ],
      "min": [
        -1.9275474548339844,
        -4.400625228881836,
        0.9048919677734375
      ],
      "type": "VEC3"
    },
    {
      "bufferView": 2,
      "byteOffset": 285120,
      "componentType": 5126,
      "count": 232,
      "max": [
        0.9999694228172302,
        0.9839667081832886,
        0.9932091236114502
      ],
      "min": [
        -0.9999694228172302,
        -0.9926180243492126,
        -0.99875408411026
      ],
      "type": "VEC3"
    },
    {
      "bufferView": 1,
      "byteOffset": 94112,
      "componentType": 5126,
      "count": 232,
      "max": [
        0.14542190730571747,
        0.14532896876335144
      ],
      "min": [
        0.10406119376420975,
        0.020563699305057526
      ],
      "type": "VEC2"
    },
    {
      "bufferView": 0,
      "byteOffset": 138792,
      "componentType": 5125,
      "count": 528,
      "type": "SCALAR"
    }
  ],
  "asset": {
    "extras": {
      "author": "Garage K (https://sketchfab.com/Streetsraker)",
      "license": "CC-BY-4.0 (http://creativecommons.org/licenses/by/4.0/)",
      "source": "https://sketchfab.com/3d-models/nissan-silvia-s14-f1a862c07b9048f0bcee641d13643bec",
      "title": "Nissan Silvia S14"
    },
    "generator": "Sketchfab-16.8.0",
    "version": "2.0"
  },
  "bufferViews": [
    {
      "buffer": 0,
      "byteLength": 140904,
      "name": "floatBufferViews",
      "target": 34963
    },
    {
      "buffer": 0,
      "byteLength": 95968,
      "byteOffset": 140904,
      "byteStride": 8,
      "name": "floatBufferViews",
      "target": 34962
    },
    {
      "buffer": 0,
      "byteLength": 287904,
      "byteOffset": 236872,
      "byteStride": 12,
      "name": "floatBufferViews",
      "target": 34962
    }
  ],
  "buffers": [
    {
      "byteLength": 524776,
      "uri": "scene.bin"
    }
  ],
  "materials": [
    {
      "doubleSided": true,
      "name": "Material.010",
      "pbrMetallicRoughness": {
        "baseColorFactor": [
          0.13257183259987076,
          0.13257183259987076,
          0.13257183259987076,
          1.0
        ],
        "metallicFactor": 0.0,
        "roughnessFactor": 0.0
      }
    },
    {
      "doubleSided": true,
      "name": "Material.001",
      "pbrMetallicRoughness": {
        "baseColorFactor": [
          0.0,
          0.0,
          0.0,
          1.0
        ],
        "metallicFactor": 0.0,
        "roughnessFactor": 0.5
      }
    },
    {
      "doubleSided": true,
      "name": "Material.002",
      "pbrMetallicRoughness": {
        "baseColorFactor": [
          0.0,
          0.0,
          0.0,
          1.0
        ],
        "metallicFactor": 0.0,
        "roughnessFactor": 0.0
      }
    },
    {
      "doubleSided": true,
      "emissiveFactor": [
        0.799103,
        0.11697099999999996,
        0.07227189999999999
      ],
      "name": "Material.005",
      "pbrMetallicRoughness": {
        "baseColorFactor": [
          0.7999999999999999,
          0.11748300000000003,
          0.07138029999999995,
          1.0
        ],
        "metallicFactor": 0.0,
        "roughnessFactor": 0.5
      }
    },
    {
      "doubleSided": true,
      "emissiveFactor": [
        0.799103,
        0.266356,
        0.0
      ],
      "name": "Material.003",
      "pbrMetallicRoughness": {
        "baseColorFactor": [
          0.8,
          0.265845,
          0.0,
          1.0
        ],
        "metallicFactor": 0.0,
        "roughnessFactor": 0.5
      }
    },
    {
      "doubleSided": true,
      "name": "Material.006",
      "pbrMetallicRoughness": {
        "baseColorFactor": [
          0.8,
          0.8,
          0.8,
          1.0
        ],
        "metallicFactor": 0.0,
        "roughnessFactor": 0.5
      }
    },
    {
      "doubleSided": true,
      "emissiveFactor": [
        0.799103,
        0.799103,
        0.799103
      ],
      "name": "Material.004",
      "pbrMetallicRoughness": {
        "baseColorFactor": [
          0.8,
          0.8,
          0.8,
          1.0
        ],
        "metallicFactor": 0.0,
        "roughnessFactor": 0.5
      }
    },
    {
      "doubleSided": true,
      "name": "Material.007",
      "pbrMetallicRoughness": {
        "baseColorFactor": [
          0.358838,
          0.358838,
          0.358838,
          1.0
        ],
        "metallicFactor": 0.0,
        "roughnessFactor": 0.074803
      }
    },
    {
      "doubleSided": true,
      "name": "Material.008",
      "pbrMetallicRoughness": {
        "baseColorFactor": [
          0.0699763,
          0.0699763,
          0.0699763,
          1.0
        ],
        "metallicFactor": 0.0,
        "roughnessFactor": 0.5
      }
    },
    {
      "doubleSided": true,
      "name": "Material.009",
      "pbrMetallicRoughness": {
        "baseColorFactor": [
          0.8,
          0.00116488,
          0.0,
          1.0
        ],
        "metallicFactor": 0.0,
        "roughnessFactor": 0.5
      }
    }
  ],
  "meshes": [
    {
      "name": "s14_Material.010_0",
      "primitives": [
        {
          "attributes": {
            "NORMAL": 1,
            "POSITION": 0,
            "TEXCOORD_0": 2
          },
          "indices": 3,
          "material": 0,
          "mode": 4
        }
      ]
    },
    {
      "name": "s14_Material.001_0",
      "primitives": [
        {
          "attributes": {
            "NORMAL": 5,
            "POSITION": 4,
            "TEXCOORD_0": 6
          },
          "indices": 7,
          "material": 1,
          "mode": 4
        }
      ]
    },
    {
      "name": "s14_Material.002_0",
      "primitives": [
        {
          "attributes": {
            "NORMAL": 9,
            "POSITION": 8,
            "TEXCOORD_0": 10
          },
          "indices": 11,
          "material": 2,
          "mode": 4
        }
      ]
    },
    {
      "name": "s14_Material.005_0",
      "primitives": [
        {
          "attributes": {
            "NORMAL": 13,
            "POSITION": 12,
            "TEXCOORD_0": 14
          },
          "indices": 15,
          "material": 3,
          "mode": 4
        }
      ]
    },
    {
      "name": "s14_Material.003_0",
      "primitives": [
        {
          "attributes": {
            "NORMAL": 17,
            "POSITION": 16,
            "TEXCOORD_0": 18
          },
          "indices": 19,
          "material": 4,
          "mode": 4
        }
      ]
    },
    {
      "name": "s14_Material.006_0",
      "primitives": [
        {
          "attributes": {
            "NORMAL": 21,
            "POSITION": 20,
            "TEXCOORD_0": 22
          },
          "indices": 23,
          "material": 5,
          "mode": 4
        }
      ]
    },
    {
      "name": "s14_Material.004_0",
      "primitives": [
        {
          "attributes": {
            "NORMAL": 25,
            "POSITION": 24,
            "TEXCOORD_0": 26
          },
          "indices": 27,
          "material": 6,
          "mode": 4
        }
      ]
    },
    {
      "name": "s14_Material.007_0",
      "primitives": [
        {
          "attributes": {
            "NORMAL": 29,
            "POSITION": 28,
            "TEXCOORD_0": 30
          },
          "indices": 31,
          "material": 7,
          "mode": 4
        }
      ]
    },
    {
      "name": "s14_Material.008_0",
      "primitives": [
        {
          "attributes": {
            "NORMAL": 33,
            "POSITION": 32,
            "TEXCOORD_0": 34
          },
          "indices": 35,
          "material": 8,
          "mode": 4
        }
      ]
    },
    {
      "name": "s14_Material.009_0",
      "primitives": [
        {
          "attributes": {
            "NORMAL": 37,
            "POSITION": 36,
            "TEXCOORD_0": 38
          },
          "indices": 39,
          "material": 9,
          "mode": 4
        }
      ]
    }
  ],
  "nodes": [
    {
      "children": [
        1
      ],
      "matrix": [
        1.0,
        0.0,
        0.0,
        0.0,
        0.0,
        2.220446049250313e-16,
        -1.0,
        0.0,
        0.0,
        1.0,
        2.220446049250313e-16,
        0.0,
        0.0,
        0.0,
        0.0,
        1.0
      ],
      "name": "Sketchfab_model"
    },
    {
      "children": [
        2
      ],
      "matrix": [
        0.009999999776482582,
        0.0,
        0.0,
        0.0,
        0.0,
        0.0,
        0.009999999776482582,
        0.0,
        0.0,
        -0.009999999776482582,
        0.0,
        0.0,
        0.0,
        0.0,
        0.0,
        1.0
      ],
      "name": "6d90058196ba487a835f576c266f3212.fbx"
    },
    {
      "children": [
        3
      ],
      "name": "RootNode"
    },
    {
      "children": [
        4,
        5,
        6,
        7,
        8,
        9,
        10,
        11,
        12,
        13
      ],
      "matrix": [
        26.14530372619629,
        0.0,
        0.0,
        0.0,
        0.0,
        -4.047729674755903e-06,
        -24.844787597655923,
        0.0,
        0.0,
        24.844787597655923,
        -4.047729674755903e-06,
        0.0,
        0.0,
        -9.27629280090332,
        -35.34271240234375,
        1.0
      ],
      "name": "s14"
    },
    {
      "mesh": 0,
      "name": "s14_Material.010_0"
    },
    {
      "mesh": 1,
      "name": "s14_Material.001_0"
    },
    {
      "mesh": 2,
      "name": "s14_Material.002_0"
    },
    {
      "mesh": 3,
      "name": "s14_Material.005_0"
    },
    {
      "mesh": 4,
      "name": "s14_Material.003_0"
    },
    {
      "mesh": 5,
      "name": "s14_Material.006_0"
    },
    {
      "mesh": 6,
      "name": "s14_Material.004_0"
    },
    {
      "mesh": 7,
      "name": "s14_Material.007_0"
    },
    {
      "mesh": 8,
      "name": "s14_Material.008_0"
    },
    {
      "mesh": 9,
      "name": "s14_Material.009_0"
    }
  ],
  "scene": 0,
  "scenes": [
    {
      "name": "Sketchfab_Scene",
      "nodes": [
        0
      ]
    }
  ]
}
